<svg width="79" height="49" viewBox="0 0 79 49" fill="none" xmlns="http://www.w3.org/2000/svg">
<path d="M21.503 41.8344C21.503 41.8344 14.937 36.5308 15.4421 23.4636C15.9471 10.3956 0 16.6218 0 16.6218C0 16.6218 7.43206 18.2147 8.65915 28.4876C9.8854 38.7597 12.7718 43.4485 16.0912 46.5233C20.5648 50.7438 28.791 48.2917 28.791 48.2917C28.791 48.2917 16.7404 50.0593 13.854 36.6075C10.9684 23.1558 10.3184 21.0037 7.21595 18.3902C8.65915 17.9289 12.3387 18.1591 13.0608 23.6171C13.7819 29.0742 14.0709 37.6069 21.503 41.8344ZM56.5676 41.8344C56.5676 41.8344 63.1344 36.5308 62.6294 23.4636C62.1243 10.3956 78.0706 16.6218 78.0706 16.6218C78.0706 16.6218 70.6385 18.2147 69.4123 28.4876C68.1852 38.7597 65.2988 43.4485 61.9794 46.5233C57.5057 50.7438 49.2796 48.2917 49.2796 48.2917C49.2796 48.2917 61.3302 50.0593 64.2166 36.6075C67.103 23.1558 67.7521 21.0037 70.8555 18.3902C69.4123 17.9289 65.7318 18.1591 65.0107 23.6171C64.2887 29.0742 63.9997 37.6069 56.5676 41.8344Z" fill="#66A639"/>
<path d="M14.6299 12.0104C14.6299 12.0104 21.7738 11.2025 27.294 19.0437C24.0466 32.0315 31.6236 39.3364 31.6236 39.3364C31.6236 39.3364 24.4797 37.8378 23.939 21.4648C22.2068 18.9281 20.5831 18.3513 20.5831 18.3513C20.5831 18.3513 17.2281 38.9906 31.6236 43.7174C14.1612 43.4872 17.6612 17.5442 17.6612 17.5442C17.6612 17.5442 17.8773 14.6618 14.6299 12.0104ZM63.3009 12.0104C63.3009 12.0104 56.1578 11.2025 50.6376 19.0437C53.8842 32.0315 46.308 39.3364 46.308 39.3364C46.308 39.3364 53.4511 37.8378 53.9926 21.4648C55.7248 18.9281 57.3477 18.3513 57.3477 18.3513C57.3477 18.3513 60.7035 38.9906 46.308 43.7174C63.7704 43.4872 60.2705 17.5442 60.2705 17.5442C60.2705 17.5442 60.0544 14.6618 63.3009 12.0104Z" fill="#DA1B57"/>
<path d="M38.794 36.305C21.9096 31.3948 38.794 9.27625 38.794 9.27625C38.794 9.27625 54.8132 31.5297 38.794 36.305ZM48.9195 24.0978C46.1814 13.4897 40.2339 7.95498 40.2339 7.95498L38.8702 0L37.8493 7.95498C37.8493 7.95498 30.3071 14.1812 28.4309 24.5009C27.4207 40.0086 38.8578 41.0468 38.8578 41.0468C38.8578 41.0468 51.945 38.7411 48.9195 24.0978Z" fill="#DA1B57"/>
<path d="M42.8131 28.0467C42.8131 30.4476 40.9857 32.3942 38.7311 32.3942C36.4773 32.3942 34.6499 30.4476 34.6499 28.0467C34.6499 25.6458 36.4773 23.6992 38.7311 23.6992C40.9857 23.6992 42.8131 25.6458 42.8131 28.0467Z" fill="#DA1B57"/>
</svg>
