<svg width="155" height="29" viewBox="0 0 155 29" fill="none" xmlns="http://www.w3.org/2000/svg">
<path d="M19.4206 20.8758C19.1187 20.282 18.6658 19.7486 18.0619 19.2738C17.458 18.796 16.7758 18.4125 16.018 18.1233C15.2631 17.8311 14.4749 17.6146 13.6547 17.4739C11.2073 17.0873 8.92822 16.2414 6.81464 14.9378C6.63173 14.8358 6.43721 14.6162 6.22818 14.2822C6.02204 13.9481 5.92043 13.6265 5.92043 13.3172C5.92043 12.1837 6.09753 11.0472 6.45463 9.90905C6.81464 8.76783 7.27335 7.87403 7.83078 7.23075C8.72499 6.15912 10.3349 5.22511 12.6618 4.42874C14.9917 3.62927 17.6148 3.22876 20.5297 3.22876C22.2716 3.22876 23.6159 3.37103 24.5652 3.65556C25.5175 3.93699 25.9936 4.37307 25.9936 4.96687C25.9936 5.9318 25.8688 6.68024 25.622 7.21219C25.3738 7.74105 25.1067 8.09052 24.8207 8.26372C24.5376 8.43691 24.0383 8.67196 23.3226 8.96886C22.5591 9.25339 21.8971 9.55029 21.3368 9.85956C20.775 10.1688 20.2945 10.4657 19.8968 10.7503C19.4976 11.0317 19.2493 11.1709 19.1535 11.1709C19.0287 11.1709 18.9677 11.1198 18.9677 11.0162C18.9677 10.7982 19.1826 10.4657 19.6122 10.0204C20.0419 9.57503 20.5718 9.18535 21.2032 8.85133C21.8681 8.47711 22.202 8.23743 22.202 8.13382C22.202 7.96991 21.8318 7.8864 21.0929 7.8864C18.8545 7.8864 16.7859 8.0998 14.8857 8.5235C12.9884 8.94875 11.4918 9.51008 10.3973 10.2059C9.30129 10.9034 8.75402 11.6131 8.75402 12.3337C8.75402 12.7837 8.98048 13.1038 9.43338 13.2925C9.8863 13.4781 10.8865 13.7904 12.4354 14.2265C13.9828 14.6641 15.3691 15.1667 16.5928 15.7357C18.3464 16.5321 19.6471 17.3625 20.4948 18.2285C21.3426 19.0913 21.7665 20.0563 21.7665 21.1233C21.7665 21.8624 21.5995 22.6016 21.2671 23.3438C20.9332 24.083 20.4455 24.7603 19.8039 25.3789C19.1608 25.9974 18.4234 26.5062 17.5916 26.9067C16.8745 27.2283 15.9744 27.5314 14.8915 27.8159C13.8115 28.1005 12.6386 28.3231 11.3728 28.484C10.1098 28.6448 8.90499 28.7252 7.7553 28.7252C5.63736 28.7252 3.93459 28.5102 2.64554 28.0819C1.3594 27.6566 0.717773 27.0134 0.717773 26.152C0.717773 25.7654 0.934067 25.1624 1.36811 24.3459C1.80505 23.5263 2.32038 22.9758 2.91264 22.6944C3.43088 22.4717 3.93169 22.3464 4.41654 22.3171C4.89993 22.2846 5.14235 22.3449 5.14235 22.4964C5.14235 22.5382 5.12203 22.5768 5.08429 22.614C5.04945 22.6511 5.0059 22.6851 4.95655 22.7129L4.81719 22.7872C4.57331 22.8908 4.37589 22.9712 4.22492 23.0284C4.07395 23.0871 3.95201 23.1444 3.85911 23.2016C3.76911 23.2603 3.72556 23.3407 3.72556 23.4428C3.72556 23.715 4.97687 23.851 7.48239 23.851C9.66129 23.851 11.4453 23.7691 12.836 23.6036C14.2252 23.4351 15.4519 23.132 16.5174 22.6944C17.5814 22.2537 18.5496 21.6475 19.4206 20.8758Z" fill="#F2C400"/>
<path d="M27.442 21.0674V21.5499C27.442 22.3138 27.6162 22.9076 27.9646 23.3313C28.3159 23.7566 28.7775 23.9684 29.3465 23.9684C29.9388 23.9684 30.5514 23.82 31.1872 23.5231C31.8216 23.2262 32.453 22.8349 33.0801 22.3478C33.7101 21.8576 34.481 21.2004 35.3911 20.3747V21.5499C34.0237 23.3035 32.7405 24.6473 31.5414 25.5828C30.3453 26.5137 29.1288 26.9807 27.8949 26.9807C26.8178 26.9807 25.9642 26.5369 25.3342 25.6509C24.7071 24.7601 24.3936 23.5416 24.3936 21.9953C24.3936 20.6437 24.6897 19.4159 25.282 18.3149C25.8742 17.2139 26.841 16.051 28.1852 14.8263C29.1056 13.9897 30.0201 13.3588 30.9259 12.9336C31.8317 12.5052 32.6417 12.2903 33.3588 12.2903C33.9279 12.2903 34.3779 12.431 34.7118 12.7109C35.0442 12.9877 35.2111 13.4021 35.2111 13.9542C35.2111 14.7676 34.9266 15.5778 34.3576 16.3851C33.7885 17.1892 32.919 17.9871 31.7504 18.7788C30.5848 19.5706 29.1491 20.3345 27.442 21.0674ZM27.622 19.8118C28.7136 19.3633 29.6456 18.8036 30.4207 18.1355C31.1945 17.4644 31.765 16.8227 32.1337 16.2119C32.5009 15.598 32.6853 15.148 32.6853 14.8634C32.6853 14.5665 32.559 14.4181 32.3079 14.4181C32.0872 14.4181 31.7301 14.5665 31.2395 14.8634C30.7517 15.1603 30.2553 15.5485 29.753 16.0263C29.2536 16.501 28.8036 17.0624 28.4059 17.7087C28.0067 18.352 27.7454 19.0541 27.622 19.8118Z" fill="#F2C400"/>
<path d="M47.5687 16.8737C45.4392 19.3974 44.3751 21.1571 44.3751 22.1499C44.3751 22.7035 44.5871 22.9788 45.0138 22.9788C45.3622 22.9788 45.8166 22.7839 46.3784 22.3911C46.9431 21.9999 47.8242 21.301 49.0204 20.2943V21.6303C47.3045 23.4334 45.9864 24.7339 45.0661 25.5333C44.1487 26.3344 43.3996 26.7333 42.819 26.7333C41.8232 26.7333 41.3267 26.0375 41.3267 24.6426C41.3267 24.2313 41.3862 23.8246 41.5067 23.4241C41.6301 23.0251 41.797 22.6107 42.0061 22.1808C42.218 21.7479 42.5417 21.1293 42.9758 20.3252C43.4127 19.518 43.9164 18.6056 44.4855 17.5912C43.7959 17.9624 42.9308 18.7031 41.8899 19.8118C41.212 20.5092 40.6372 21.1711 40.1654 21.7973C39.6922 22.4205 39.187 23.1148 38.6499 23.8818C38.1113 24.6488 37.7179 25.1653 37.4712 25.4282C37.2229 25.6926 36.9732 25.8241 36.7221 25.8241C36.3345 25.8241 35.976 25.3942 35.6479 24.5313C35.3227 23.6653 35.1602 22.6602 35.1602 21.5128C35.1602 20.8046 35.2356 20.2494 35.3866 19.8489C35.5376 19.45 35.8366 18.8824 36.2866 18.1479C37.1184 16.784 37.837 15.7835 38.4408 15.148C39.0476 14.5093 39.6283 14.1892 40.1828 14.1892C40.5689 14.1892 40.881 14.2604 41.1177 14.3995C41.3528 14.5403 41.4719 14.7583 41.4719 15.0552C41.4719 15.1835 41.4341 15.3196 41.3615 15.4634C41.2919 15.6042 41.2106 15.7325 41.1177 15.8469C41.0277 15.9629 40.8389 16.1902 40.5486 16.5273C38.6354 18.7835 37.6802 20.2448 37.6802 20.9128C37.6802 21.2886 37.7963 21.4757 38.0286 21.4757C38.1708 21.4757 38.4525 21.2283 38.8705 20.7334C39.2886 20.2355 39.8257 19.5829 40.4848 18.7788C41.1423 17.9716 41.9219 17.1304 42.8248 16.2552C43.7262 15.3768 44.7526 14.5341 45.9022 13.7253C46.541 13.2475 47.0723 13.0078 47.499 13.0078C47.6921 13.0078 47.8823 13.2923 48.0681 13.8614C48.2568 14.4274 48.3526 14.9995 48.3526 15.581C48.3526 15.8624 48.0913 16.2923 47.5687 16.8737Z" fill="#F2C400"/>
<path d="M55.2114 10.3419H55.9895C56.6311 9.11722 57.2117 8.25125 57.7314 7.74405C58.254 7.23375 58.8477 6.97705 59.514 6.97705C60.176 6.97705 60.507 7.13787 60.507 7.45952C60.507 7.61725 60.2471 8.03786 59.7289 8.72135C59.2092 9.40175 58.8173 9.9739 58.5502 10.4347C58.9595 10.4888 59.3253 10.5368 59.6476 10.577C59.9684 10.6141 60.2195 10.645 60.4024 10.6698C59.7129 12.0352 58.8477 13.4331 57.8069 14.8635C57.4658 14.8388 57.1813 14.8171 56.9534 14.7955C56.724 14.7754 56.4917 14.7568 56.2566 14.7398C56.02 14.7197 55.7311 14.6965 55.3914 14.6718C54.7367 15.7944 54.1894 16.7965 53.7481 17.6779C53.3069 18.5609 52.9672 19.3696 52.732 20.1026C52.4954 20.8371 52.3778 21.5314 52.3778 22.1871C52.3778 23.0778 52.7102 23.5231 53.3765 23.5231C53.8367 23.5231 54.4391 23.2633 55.1824 22.7438C55.9256 22.2211 56.92 21.417 58.1669 20.3314V21.6304C54.9036 25.4035 52.4896 27.2901 50.9262 27.2901C50.3833 27.2901 49.9463 27.0643 49.6139 26.6159C49.28 26.1674 49.1145 25.5875 49.1145 24.8777C49.1145 24.3999 49.2074 23.8324 49.3932 23.1767C49.582 22.518 49.9187 21.5237 50.4036 20.1954C50.2323 20.3531 50.0726 20.5046 49.9216 20.6531C49.7707 20.8015 49.6313 20.9376 49.5036 21.0613C49.3758 21.1819 49.2379 21.3087 49.0913 21.4448C48.9476 21.5809 48.8039 21.7201 48.6616 21.8592V20.5294C49.9303 19.3959 51.4676 17.4042 53.272 14.5542C53.0891 14.5419 52.9193 14.5341 52.761 14.5295C52.6014 14.5218 52.4141 14.5171 52.1978 14.5171C51.485 14.5171 50.9523 14.5697 50.601 14.6718C50.4573 14.7089 50.3223 14.7506 50.1945 14.7955C50.0668 14.8419 49.9768 14.8635 49.9274 14.8635C49.881 14.8635 49.8578 14.8248 49.8578 14.746C49.8578 14.3223 50.1045 13.6852 50.601 12.8347C50.9988 12.1141 51.3762 11.579 51.7333 11.2326C52.0933 10.8832 52.5288 10.6481 53.0397 10.5275C53.5536 10.4038 54.278 10.3419 55.2114 10.3419Z" fill="#F2C400"/>
<path d="M65.5277 11.7336C65.2257 11.7336 64.9383 11.613 64.6683 11.3687C64.3969 11.1213 64.2618 10.8104 64.2618 10.4347C64.2618 9.87025 64.5144 9.23933 65.0225 8.54192C65.5291 7.84606 66.0561 7.49658 66.6019 7.49658C66.9619 7.49658 67.2609 7.6172 67.5019 7.85534C67.7458 8.09502 67.8677 8.43986 67.8677 8.88831C67.8677 9.445 67.6195 10.0605 67.1245 10.7316C66.628 11.3996 66.0967 11.7336 65.5277 11.7336ZM66.7645 20.3747V21.785C65.5915 23.3932 64.4956 24.6086 63.478 25.4282C62.4633 26.2447 61.5981 26.6529 60.8824 26.6529C59.891 26.6529 59.1535 26.1009 58.6702 24.9952C58.1853 23.8865 57.9443 22.6741 57.9443 21.3582C57.9443 20.8556 57.9922 20.3747 58.0895 19.917C58.1853 19.4592 58.3 19.0819 58.4321 18.785C58.5671 18.4881 58.8168 18.0242 59.1811 17.3933C60.8955 14.548 62.4676 13.1253 63.896 13.1253C64.6349 13.1253 65.0051 13.4284 65.0051 14.0346C65.0051 14.4475 64.7641 15.0923 64.2851 15.9706C63.8089 16.8459 63.3822 17.4675 63.0076 17.8387C61.9537 18.9242 61.2671 19.6788 60.9463 20.1025C60.6241 20.5278 60.4644 21.0102 60.4644 21.5499C60.4644 22.0169 60.627 22.4035 60.9521 22.7128C61.2802 23.0221 61.707 23.1767 62.2296 23.1767C62.7942 23.1767 63.4199 22.954 64.1051 22.5087C64.7902 22.0633 65.6757 21.352 66.7645 20.3747Z" fill="#F2C400"/>
<path d="M66.3809 21.8594V20.6037C67.0341 19.7795 67.5306 19.0759 67.8673 18.4945C67.4797 18.3553 67.1967 18.1821 67.0196 17.9749C66.8454 17.7692 66.7583 17.46 66.7583 17.0471C66.7583 16.5863 66.9397 16.0002 67.3041 15.2904C67.667 14.5822 68.1141 13.9172 68.6454 13.2987C69.1796 12.6802 69.663 12.2812 70.097 12.0987C70.2669 12.009 70.4309 11.9626 70.5906 11.9626C70.8301 11.9626 70.9506 12.0864 70.9506 12.3338C70.9506 12.5534 70.7619 12.9956 70.3874 13.6636C72.8798 13.2523 74.4534 13.0451 75.1081 13.0451C75.3636 13.0451 75.5392 13.0729 75.6365 13.1255C75.8412 13.2415 76.0095 13.5121 76.1416 13.9358C76.2723 14.3611 76.3391 14.7863 76.3391 15.21C76.3391 15.4822 76.2258 15.7775 76.0023 16.0945C75.7816 16.4084 75.3984 16.8677 74.8526 17.4739C74.2139 18.2084 73.6753 19.0079 73.2384 19.8738C72.8043 20.7367 72.588 21.3862 72.588 21.8223C72.588 22.4284 72.9379 22.7315 73.639 22.7315C74.3736 22.7315 75.6554 21.932 77.483 20.3316V21.6305C76.4799 22.7532 75.651 23.6346 74.9978 24.2779C74.3431 24.9212 73.7377 25.433 73.1803 25.8119C72.6258 26.1923 72.1308 26.3809 71.6938 26.3809C71.1858 26.3809 70.7619 26.1335 70.4222 25.6387C70.0854 25.1438 69.917 24.4263 69.917 23.4861C69.917 22.9294 70.0506 22.2985 70.3177 21.5934C70.5848 20.8852 70.9738 20.1135 71.4848 19.28C71.9987 18.4481 72.5779 17.6192 73.221 16.7935C72.8798 16.8723 72.498 16.9543 72.0771 17.0409C71.6546 17.1244 71.2075 17.211 70.7358 17.3007C70.2625 17.3919 69.8996 17.4615 69.6441 17.511C68.8965 19.1115 67.8093 20.5604 66.3809 21.8594Z" fill="#F2C400"/>
<path d="M77.2925 20.913V20.4491C80.412 16.9451 82.559 14.4894 83.7319 13.0822C83.999 11.4988 84.6392 10.707 85.6539 10.707C85.9094 10.707 86.1823 10.7859 86.4726 10.9421L86.5829 11.307C86.5321 11.4601 86.5075 11.6781 86.5075 11.9627C86.5075 12.2101 86.5946 12.6663 86.7687 13.3297C86.9458 13.99 87.0838 14.5466 87.181 14.9997C87.2768 15.4497 87.3262 15.9585 87.3262 16.5275C87.3262 17.378 87.1433 18.1914 86.7804 18.9708C86.416 19.7502 85.8891 20.4986 85.201 21.2161C84.5115 21.9305 83.6231 22.6604 82.5358 23.4058C82.9684 23.4846 83.3139 23.5233 83.5693 23.5233C84.0644 23.5233 84.5986 23.3918 85.172 23.1274C85.7482 22.8645 86.3347 22.5089 86.9313 22.0635C87.5309 21.6182 88.2291 21.0414 89.0275 20.3316V21.6305C87.4786 23.2388 86.0923 24.4604 84.87 25.2923C83.6506 26.1258 82.5997 26.5418 81.7171 26.5418C80.579 26.5418 79.5251 26.0253 78.5583 24.9892C77.9893 24.3707 77.6351 23.78 77.4957 23.214C77.3593 22.6449 77.2925 21.878 77.2925 20.913ZM84.0571 17.9564L83.7319 15.1358C82.98 16.0358 81.3774 17.7677 78.9241 20.3316C79.647 20.5017 80.1435 20.7275 80.4106 21.012C80.6777 21.2934 81.0522 21.8393 81.5371 22.6511C82.3572 22.2924 82.9887 21.8022 83.43 21.179C83.8713 20.5527 84.0919 19.6976 84.0919 18.612C84.0919 18.4852 84.0876 18.3693 84.0803 18.2657C84.076 18.1636 84.0687 18.06 84.0571 17.9564Z" fill="#F2C400"/>
<path d="M91.8067 21.0674V21.5499C91.8067 22.3138 91.9809 22.9076 92.3293 23.3313C92.6806 23.7566 93.1422 23.9684 93.7113 23.9684C94.3035 23.9684 94.9161 23.82 95.5519 23.5231C96.1863 23.2262 96.8178 22.8349 97.4449 22.3478C98.0749 21.8576 98.8457 21.2004 99.7559 20.3747V21.5499C98.3884 23.3035 97.1052 24.6473 95.9061 25.5828C94.71 26.5137 93.4935 26.9807 92.2596 26.9807C91.1825 26.9807 90.329 26.5369 89.699 25.6509C89.0719 24.7601 88.7583 23.5416 88.7583 21.9953C88.7583 20.6437 89.0544 19.4159 89.6467 18.3149C90.239 17.2139 91.2058 16.051 92.55 14.8263C93.4703 13.9897 94.3848 13.3588 95.2907 12.9336C96.1965 12.5052 97.0065 12.2903 97.7236 12.2903C98.2926 12.2903 98.7426 12.431 99.0765 12.7109C99.4089 12.9877 99.5759 13.4021 99.5759 13.9542C99.5759 14.7676 99.2914 15.5778 98.7223 16.3851C98.1533 17.1892 97.2837 17.9871 96.1152 18.7788C94.9495 19.5706 93.5139 20.3345 91.8067 21.0674ZM91.9867 19.8118C93.0784 19.3633 94.0103 18.8036 94.7855 18.1355C95.5592 17.4644 96.1297 16.8227 96.4984 16.2119C96.8657 15.598 97.05 15.148 97.05 14.8634C97.05 14.5665 96.9237 14.4181 96.6726 14.4181C96.452 14.4181 96.0949 14.5665 95.6042 14.8634C95.1165 15.1603 94.62 15.5485 94.1177 16.0263C93.6184 16.501 93.1684 17.0624 92.7706 17.7087C92.3714 18.352 92.1101 19.0541 91.9867 19.8118Z" fill="#F2C400"/>
<path d="M122.113 20.4119V21.6676C120.854 22.518 119.861 22.9418 119.134 22.9418C118.735 22.9418 118.312 22.8722 117.868 22.7314C116.777 24.2005 115.839 25.2768 115.058 25.9603C114.28 26.6407 113.497 26.9809 112.712 26.9809C111.806 26.9809 111.107 26.4736 110.616 25.4592C110.128 24.4417 109.884 23.1768 109.884 21.6676C109.884 19.6186 110.465 17.3857 111.626 14.9687C112.788 12.5533 114.187 10.291 115.824 8.18327C117.462 6.07712 119.048 4.33437 120.586 2.95657C122.122 1.5803 123.164 0.890625 123.71 0.890625C124.228 0.890625 124.488 1.27103 124.488 2.02875C124.488 5.406 120.423 11.2946 112.294 19.6944C112.271 19.9263 112.259 20.3841 112.259 21.0676C112.259 22.8459 112.706 23.7335 113.6 23.7335C113.952 23.7335 114.306 23.5835 114.663 23.282C115.019 22.9773 115.566 22.4005 116.306 21.55C116.016 20.8542 115.871 20.3377 115.871 20.0037C115.871 19.2954 116.141 18.5284 116.684 17.7027C117.23 16.8785 117.848 16.1671 118.542 15.5687C119.239 14.9718 119.745 14.6718 120.063 14.6718C120.558 14.6718 120.806 15.0522 120.806 15.8099C120.806 16.3914 120.663 17.0888 120.377 17.9006C120.094 18.7094 119.68 19.6372 119.134 20.6841C119.339 20.8619 119.501 20.9933 119.622 21.0799C119.745 21.1634 119.927 21.2036 120.168 21.2036C120.725 21.2036 121.373 20.9408 122.113 20.4119ZM112.892 17.5109C113.522 16.9295 114.155 16.2429 114.791 15.4512C115.425 14.6594 116.354 13.4455 117.578 11.8079C118.751 10.2368 119.671 8.92862 120.342 7.88018C121.015 6.82866 121.521 5.95496 121.857 5.25755C122.197 4.56169 122.368 4.08541 122.368 3.82871C122.368 3.63542 122.319 3.538 122.223 3.538C121.956 3.538 121.4 4.00655 120.557 4.94209C119.716 5.87455 118.758 7.15339 117.682 8.77707C116.196 11.0162 115.119 12.7033 114.454 13.8368C113.788 14.9718 113.267 16.1965 112.892 17.5109Z" fill="#F2C400"/>
<path d="M129.486 11.7336C129.184 11.7336 128.896 11.613 128.626 11.3687C128.355 11.1213 128.22 10.8104 128.22 10.4347C128.22 9.87025 128.472 9.23933 128.981 8.54192C129.487 7.84606 130.014 7.49658 130.56 7.49658C130.92 7.49658 131.219 7.6172 131.46 7.85534C131.704 8.09502 131.826 8.43986 131.826 8.88831C131.826 9.445 131.577 10.0605 131.082 10.7316C130.586 11.3996 130.055 11.7336 129.486 11.7336ZM130.722 20.3747V21.785C129.55 23.3932 128.454 24.6086 127.436 25.4282C126.421 26.2447 125.556 26.6529 124.84 26.6529C123.849 26.6529 123.112 26.1009 122.628 24.9952C122.143 23.8865 121.902 22.6741 121.902 21.3582C121.902 20.8556 121.95 20.3747 122.048 19.917C122.143 19.4592 122.258 19.0819 122.39 18.785C122.525 18.4881 122.775 18.0242 123.139 17.3933C124.854 14.548 126.426 13.1253 127.854 13.1253C128.593 13.1253 128.963 13.4284 128.963 14.0346C128.963 14.4475 128.722 15.0923 128.243 15.9706C127.767 16.8459 127.34 17.4675 126.966 17.8387C125.912 18.9242 125.225 19.6788 124.904 20.1025C124.582 20.5278 124.422 21.0102 124.422 21.5499C124.422 22.0169 124.585 22.4035 124.91 22.7128C125.238 23.0221 125.665 23.1767 126.188 23.1767C126.752 23.1767 127.378 22.954 128.063 22.5087C128.748 22.0633 129.634 21.352 130.722 20.3747Z" fill="#F2C400"/>
<path d="M133.422 21.0674V21.5499C133.422 22.3138 133.596 22.9076 133.945 23.3313C134.296 23.7566 134.757 23.9684 135.327 23.9684C135.919 23.9684 136.531 23.82 137.167 23.5231C137.802 23.2262 138.433 22.8349 139.06 22.3478C139.69 21.8576 140.461 21.2004 141.371 20.3747V21.5499C140.004 23.3035 138.72 24.6473 137.521 25.5828C136.325 26.5137 135.109 26.9807 133.875 26.9807C132.798 26.9807 131.944 26.5369 131.314 25.6509C130.687 24.7601 130.374 23.5416 130.374 21.9953C130.374 20.6437 130.67 19.4159 131.262 18.3149C131.854 17.2139 132.821 16.051 134.165 14.8263C135.086 13.9897 136 13.3588 136.906 12.9336C137.812 12.5052 138.622 12.2903 139.339 12.2903C139.908 12.2903 140.358 12.431 140.692 12.7109C141.024 12.9877 141.191 13.4021 141.191 13.9542C141.191 14.7676 140.907 15.5778 140.338 16.3851C139.769 17.1892 138.899 17.9871 137.73 18.7788C136.565 19.5706 135.129 20.3345 133.422 21.0674ZM133.602 19.8118C134.694 19.3633 135.626 18.8036 136.401 18.1355C137.174 17.4644 137.745 16.8227 138.114 16.2119C138.481 15.598 138.665 15.148 138.665 14.8634C138.665 14.5665 138.539 14.4181 138.288 14.4181C138.067 14.4181 137.71 14.5665 137.219 14.8634C136.732 15.1603 136.235 15.5485 135.733 16.0263C135.234 16.501 134.784 17.0624 134.386 17.7087C133.987 18.352 133.725 19.0541 133.602 19.8118Z" fill="#F2C400"/>
<path d="M153.549 16.8737C151.419 19.3974 150.355 21.1571 150.355 22.1499C150.355 22.7035 150.567 22.9788 150.994 22.9788C151.342 22.9788 151.797 22.7839 152.358 22.3911C152.923 21.9999 153.804 21.301 155 20.2943V21.6303C153.285 23.4334 151.966 24.7339 151.046 25.5333C150.129 26.3344 149.38 26.7333 148.799 26.7333C147.803 26.7333 147.307 26.0375 147.307 24.6426C147.307 24.2313 147.366 23.8246 147.487 23.4241C147.61 23.0251 147.777 22.6107 147.986 22.1808C148.198 21.7479 148.522 21.1293 148.956 20.3252C149.393 19.518 149.896 18.6056 150.465 17.5912C149.776 17.9624 148.911 18.7031 147.87 19.8118C147.192 20.5092 146.617 21.1711 146.145 21.7973C145.672 22.4205 145.167 23.1148 144.63 23.8818C144.091 24.6488 143.698 25.1653 143.451 25.4282C143.203 25.6926 142.953 25.8241 142.702 25.8241C142.315 25.8241 141.956 25.3942 141.628 24.5313C141.303 23.6653 141.14 22.6602 141.14 21.5128C141.14 20.8046 141.216 20.2494 141.367 19.8489C141.518 19.45 141.817 18.8824 142.267 18.1479C143.098 16.784 143.817 15.7835 144.421 15.148C145.028 14.5093 145.608 14.1892 146.163 14.1892C146.549 14.1892 146.861 14.2604 147.098 14.3995C147.333 14.5403 147.452 14.7583 147.452 15.0552C147.452 15.1835 147.414 15.3196 147.342 15.4634C147.272 15.6042 147.191 15.7325 147.098 15.8469C147.008 15.9629 146.819 16.1902 146.529 16.5273C144.615 18.7835 143.66 20.2448 143.66 20.9128C143.66 21.2886 143.776 21.4757 144.009 21.4757C144.151 21.4757 144.432 21.2283 144.851 20.7334C145.269 20.2355 145.806 19.5829 146.465 18.7788C147.122 17.9716 147.902 17.1304 148.805 16.2552C149.706 15.3768 150.733 14.5341 151.882 13.7253C152.521 13.2475 153.052 13.0078 153.479 13.0078C153.672 13.0078 153.862 13.2923 154.048 13.8614C154.237 14.4274 154.333 14.9995 154.333 15.581C154.333 15.8624 154.071 16.2923 153.549 16.8737Z" fill="#F2C400"/>
</svg>
