<svg width="155" height="29" viewBox="0 0 155 29" fill="none" xmlns="http://www.w3.org/2000/svg">
<path d="M19.4206 20.8758C19.1187 20.282 18.6658 19.7486 18.0619 19.2738C17.458 18.796 16.7758 18.4125 16.018 18.1233C15.2631 17.8311 14.4749 17.6146 13.6547 17.4739C11.2073 17.0873 8.92822 16.2414 6.81464 14.9378C6.63173 14.8358 6.43721 14.6162 6.22818 14.2822C6.02204 13.9481 5.92043 13.6265 5.92043 13.3172C5.92043 12.1837 6.09753 11.0472 6.45463 9.90905C6.81464 8.76783 7.27335 7.87403 7.83078 7.23075C8.72499 6.15912 10.3349 5.22511 12.6618 4.42874C14.9917 3.62927 17.6148 3.22876 20.5297 3.22876C22.2716 3.22876 23.6159 3.37103 24.5652 3.65556C25.5175 3.93699 25.9936 4.37307 25.9936 4.96687C25.9936 5.9318 25.8688 6.68024 25.622 7.21219C25.3738 7.74105 25.1067 8.09052 24.8207 8.26372C24.5376 8.43691 24.0383 8.67196 23.3226 8.96886C22.5591 9.25339 21.8971 9.55029 21.3368 9.85956C20.775 10.1688 20.2945 10.4657 19.8968 10.7503C19.4976 11.0317 19.2493 11.1709 19.1535 11.1709C19.0287 11.1709 18.9677 11.1198 18.9677 11.0162C18.9677 10.7982 19.1826 10.4657 19.6122 10.0204C20.0419 9.57503 20.5718 9.18535 21.2032 8.85133C21.8681 8.47711 22.202 8.23743 22.202 8.13382C22.202 7.96991 21.8318 7.8864 21.0929 7.8864C18.8545 7.8864 16.7859 8.0998 14.8857 8.5235C12.9884 8.94875 11.4918 9.51008 10.3973 10.2059C9.30129 10.9034 8.75402 11.6131 8.75402 12.3337C8.75402 12.7837 8.98048 13.1038 9.43338 13.2925C9.8863 13.4781 10.8865 13.7904 12.4354 14.2265C13.9828 14.6641 15.3691 15.1667 16.5928 15.7357C18.3464 16.5321 19.6471 17.3625 20.4948 18.2285C21.3426 19.0913 21.7665 20.0563 21.7665 21.1233C21.7665 21.8624 21.5995 22.6016 21.2671 23.3438C20.9332 24.083 20.4455 24.7603 19.8039 25.3789C19.1608 25.9974 18.4234 26.5062 17.5916 26.9067C16.8745 27.2283 15.9744 27.5314 14.8915 27.8159C13.8115 28.1005 12.6386 28.3231 11.3728 28.484C10.1098 28.6448 8.90499 28.7252 7.7553 28.7252C5.63736 28.7252 3.93459 28.5102 2.64554 28.0819C1.3594 27.6566 0.717773 27.0134 0.717773 26.152C0.717773 25.7654 0.934067 25.1624 1.36811 24.3459C1.80505 23.5263 2.32038 22.9758 2.91264 22.6944C3.43088 22.4717 3.93169 22.3464 4.41654 22.3171C4.89993 22.2846 5.14235 22.3449 5.14235 22.4964C5.14235 22.5382 5.12203 22.5768 5.08429 22.614C5.04945 22.6511 5.0059 22.6851 4.95655 22.7129L4.81719 22.7872C4.57331 22.8908 4.37589 22.9712 4.22492 23.0284C4.07395 23.0871 3.95201 23.1444 3.85911 23.2016C3.76911 23.2603 3.72556 23.3407 3.72556 23.4428C3.72556 23.715 4.97687 23.851 7.48239 23.851C9.66129 23.851 11.4453 23.7691 12.836 23.6036C14.2252 23.4351 15.4519 23.132 16.5174 22.6944C17.5814 22.2537 18.5496 21.6475 19.4206 20.8758Z" fill="black"/>
<path d="M27.442 21.0676V21.55C27.442 22.3139 27.6162 22.9077 27.9646 23.3314C28.3159 23.7567 28.7775 23.9685 29.3465 23.9685C29.9388 23.9685 30.5514 23.8201 31.1872 23.5232C31.8216 23.2263 32.453 22.8351 33.0801 22.3479C33.7101 21.8577 34.481 21.2005 35.3911 20.3748V21.55C34.0237 23.3036 32.7405 24.6474 31.5414 25.5829C30.3453 26.5138 29.1288 26.9808 27.8949 26.9808C26.8178 26.9808 25.9642 26.537 25.3342 25.651C24.7071 24.7603 24.3936 23.5417 24.3936 21.9954C24.3936 20.6439 24.6897 19.416 25.282 18.315C25.8742 17.214 26.841 16.0512 28.1852 14.8264C29.1056 13.9899 30.0201 13.3589 30.9259 12.9337C31.8317 12.5053 32.6417 12.2904 33.3588 12.2904C33.9279 12.2904 34.3779 12.4311 34.7118 12.711C35.0442 12.9878 35.2111 13.4022 35.2111 13.9543C35.2111 14.7677 34.9266 15.578 34.3576 16.3852C33.7885 17.1893 32.919 17.9872 31.7504 18.7789C30.5848 19.5707 29.1491 20.3346 27.442 21.0676ZM27.622 19.8119C28.7136 19.3635 29.6456 18.8037 30.4207 18.1357C31.1945 17.4645 31.765 16.8228 32.1337 16.212C32.5009 15.5981 32.6853 15.1481 32.6853 14.8636C32.6853 14.5667 32.559 14.4182 32.3079 14.4182C32.0872 14.4182 31.7301 14.5667 31.2395 14.8636C30.7517 15.1605 30.2553 15.5486 29.753 16.0264C29.2536 16.5012 28.8036 17.0625 28.4059 17.7089C28.0067 18.3521 27.7454 19.0542 27.622 19.8119Z" fill="black"/>
<path d="M47.5687 16.8738C45.4392 19.3975 44.3751 21.1573 44.3751 22.15C44.3751 22.7036 44.5871 22.9789 45.0138 22.9789C45.3622 22.9789 45.8166 22.784 46.3784 22.3913C46.9431 22 47.8242 21.3011 49.0204 20.2944V21.6305C47.3045 23.4335 45.9864 24.734 45.0661 25.5335C44.1487 26.3345 43.3996 26.7334 42.819 26.7334C41.8232 26.7334 41.3267 26.0376 41.3267 24.6428C41.3267 24.2314 41.3862 23.8247 41.5067 23.4242C41.6301 23.0253 41.797 22.6108 42.0061 22.181C42.218 21.748 42.5417 21.1294 42.9758 20.3253C43.4127 19.5181 43.9164 18.6058 44.4855 17.5914C43.7959 17.9625 42.9308 18.7032 41.8899 19.8119C41.212 20.5093 40.6372 21.1712 40.1654 21.7975C39.6922 22.4206 39.187 23.115 38.6499 23.882C38.1113 24.649 37.7179 25.1654 37.4712 25.4283C37.2229 25.6927 36.9732 25.8242 36.7221 25.8242C36.3345 25.8242 35.976 25.3943 35.6479 24.5314C35.3227 23.6655 35.1602 22.6603 35.1602 21.5129C35.1602 20.8047 35.2356 20.2495 35.3866 19.849C35.5376 19.4501 35.8366 18.8826 36.2866 18.148C37.1184 16.7842 37.837 15.7837 38.4408 15.1481C39.0476 14.5095 39.6283 14.1894 40.1828 14.1894C40.5689 14.1894 40.881 14.2605 41.1177 14.3997C41.3528 14.5404 41.4719 14.7584 41.4719 15.0553C41.4719 15.1837 41.4341 15.3197 41.3615 15.4636C41.2919 15.6043 41.2106 15.7326 41.1177 15.8471C41.0277 15.963 40.8389 16.1903 40.5486 16.5275C38.6354 18.7836 37.6802 20.2449 37.6802 20.9129C37.6802 21.2887 37.7963 21.4758 38.0286 21.4758C38.1708 21.4758 38.4525 21.2284 38.8705 20.7336C39.2886 20.2356 39.8257 19.5831 40.4848 18.779C41.1423 17.9718 41.9219 17.1305 42.8248 16.2553C43.7262 15.377 44.7526 14.5342 45.9022 13.7254C46.541 13.2476 47.0723 13.0079 47.499 13.0079C47.6921 13.0079 47.8823 13.2925 48.0681 13.8615C48.2568 14.4275 48.3526 14.9996 48.3526 15.5811C48.3526 15.8625 48.0913 16.2924 47.5687 16.8738Z" fill="black"/>
<path d="M55.2114 10.3419H55.9895C56.6311 9.11722 57.2117 8.25125 57.7314 7.74405C58.254 7.23375 58.8477 6.97705 59.514 6.97705C60.176 6.97705 60.507 7.13787 60.507 7.45952C60.507 7.61725 60.2471 8.03786 59.7289 8.72135C59.2092 9.40175 58.8173 9.9739 58.5502 10.4347C58.9595 10.4888 59.3253 10.5368 59.6476 10.577C59.9684 10.6141 60.2195 10.645 60.4024 10.6698C59.7129 12.0352 58.8477 13.4331 57.8069 14.8635C57.4658 14.8388 57.1813 14.8171 56.9534 14.7955C56.724 14.7754 56.4917 14.7568 56.2566 14.7398C56.02 14.7197 55.7311 14.6965 55.3914 14.6718C54.7367 15.7944 54.1894 16.7965 53.7481 17.6779C53.3069 18.5609 52.9672 19.3696 52.732 20.1026C52.4954 20.8371 52.3778 21.5314 52.3778 22.1871C52.3778 23.0778 52.7102 23.5231 53.3765 23.5231C53.8367 23.5231 54.4391 23.2633 55.1824 22.7438C55.9256 22.2211 56.92 21.417 58.1669 20.3314V21.6304C54.9036 25.4035 52.4896 27.2901 50.9262 27.2901C50.3833 27.2901 49.9463 27.0643 49.6139 26.6159C49.28 26.1674 49.1145 25.5875 49.1145 24.8777C49.1145 24.3999 49.2074 23.8324 49.3932 23.1767C49.582 22.518 49.9187 21.5237 50.4036 20.1954C50.2323 20.3531 50.0726 20.5046 49.9216 20.6531C49.7707 20.8015 49.6313 20.9376 49.5036 21.0613C49.3758 21.1819 49.2379 21.3087 49.0913 21.4448C48.9476 21.5809 48.8039 21.7201 48.6616 21.8592V20.5294C49.9303 19.3959 51.4676 17.4042 53.272 14.5542C53.0891 14.5419 52.9193 14.5341 52.761 14.5295C52.6014 14.5218 52.4141 14.5171 52.1978 14.5171C51.485 14.5171 50.9523 14.5697 50.601 14.6718C50.4573 14.7089 50.3223 14.7506 50.1945 14.7955C50.0668 14.8419 49.9768 14.8635 49.9274 14.8635C49.881 14.8635 49.8578 14.8248 49.8578 14.746C49.8578 14.3223 50.1045 13.6852 50.601 12.8347C50.9988 12.1141 51.3762 11.579 51.7333 11.2326C52.0933 10.8832 52.5288 10.6481 53.0397 10.5275C53.5536 10.4038 54.278 10.3419 55.2114 10.3419Z" fill="black"/>
<path d="M65.5277 11.7337C65.2257 11.7337 64.9383 11.6131 64.6683 11.3688C64.3969 11.1214 64.2618 10.8106 64.2618 10.4348C64.2618 9.87037 64.5144 9.23945 65.0225 8.54205C65.5291 7.84618 66.0561 7.4967 66.6019 7.4967C66.9619 7.4967 67.2609 7.61732 67.5019 7.85546C67.7458 8.09515 67.8677 8.43999 67.8677 8.88843C67.8677 9.44512 67.6195 10.0606 67.1245 10.7317C66.628 11.3997 66.0967 11.7337 65.5277 11.7337ZM66.7645 20.3748V21.7851C65.5915 23.3933 64.4956 24.6088 63.478 25.4283C62.4633 26.2448 61.5981 26.653 60.8824 26.653C59.891 26.653 59.1535 26.101 58.6702 24.9953C58.1853 23.8866 57.9443 22.6743 57.9443 21.3583C57.9443 20.8557 57.9922 20.3748 58.0895 19.9171C58.1853 19.4594 58.3 19.0821 58.4321 18.7852C58.5671 18.4882 58.8168 18.0243 59.1811 17.3934C60.8955 14.5481 62.4676 13.1255 63.896 13.1255C64.6349 13.1255 65.0051 13.4286 65.0051 14.0347C65.0051 14.4476 64.7641 15.0924 64.2851 15.9708C63.8089 16.846 63.3822 17.4676 63.0076 17.8388C61.9537 18.9243 61.2671 19.6789 60.9463 20.1027C60.6241 20.5279 60.4644 21.0104 60.4644 21.55C60.4644 22.017 60.627 22.4036 60.9521 22.7129C61.2802 23.0222 61.707 23.1768 62.2296 23.1768C62.7942 23.1768 63.4199 22.9541 64.1051 22.5088C64.7902 22.0634 65.6757 21.3521 66.7645 20.3748Z" fill="black"/>
<path d="M66.3809 21.8594V20.6037C67.0341 19.7795 67.5306 19.0759 67.8673 18.4945C67.4797 18.3553 67.1967 18.1821 67.0196 17.9749C66.8454 17.7692 66.7583 17.46 66.7583 17.0471C66.7583 16.5863 66.9397 16.0002 67.3041 15.2904C67.667 14.5822 68.1141 13.9172 68.6454 13.2987C69.1796 12.6802 69.663 12.2812 70.097 12.0987C70.2669 12.009 70.4309 11.9626 70.5906 11.9626C70.8301 11.9626 70.9506 12.0864 70.9506 12.3338C70.9506 12.5534 70.7619 12.9956 70.3874 13.6636C72.8798 13.2523 74.4534 13.0451 75.1081 13.0451C75.3636 13.0451 75.5392 13.0729 75.6365 13.1255C75.8412 13.2415 76.0095 13.5121 76.1416 13.9358C76.2723 14.3611 76.3391 14.7863 76.3391 15.21C76.3391 15.4822 76.2258 15.7775 76.0023 16.0945C75.7816 16.4084 75.3984 16.8677 74.8526 17.4739C74.2139 18.2084 73.6753 19.0079 73.2384 19.8738C72.8043 20.7367 72.588 21.3862 72.588 21.8223C72.588 22.4284 72.9379 22.7315 73.639 22.7315C74.3736 22.7315 75.6554 21.932 77.483 20.3316V21.6305C76.4799 22.7532 75.651 23.6346 74.9978 24.2779C74.3431 24.9212 73.7377 25.433 73.1803 25.8119C72.6258 26.1923 72.1308 26.3809 71.6938 26.3809C71.1858 26.3809 70.7619 26.1335 70.4222 25.6387C70.0854 25.1438 69.917 24.4263 69.917 23.4861C69.917 22.9294 70.0506 22.2985 70.3177 21.5934C70.5848 20.8852 70.9738 20.1135 71.4848 19.28C71.9987 18.4481 72.5779 17.6192 73.221 16.7935C72.8798 16.8723 72.498 16.9543 72.0771 17.0409C71.6546 17.1244 71.2075 17.211 70.7358 17.3007C70.2625 17.3919 69.8996 17.4615 69.6441 17.511C68.8965 19.1115 67.8093 20.5604 66.3809 21.8594Z" fill="black"/>
<path d="M77.2925 20.9129V20.449C80.412 16.9449 82.559 14.4893 83.7319 13.0821C83.999 11.4986 84.6392 10.7069 85.6539 10.7069C85.9094 10.7069 86.1823 10.7858 86.4726 10.942L86.5829 11.3069C86.5321 11.46 86.5075 11.678 86.5075 11.9626C86.5075 12.21 86.5946 12.6662 86.7687 13.3295C86.9458 13.9898 87.0838 14.5465 87.181 14.9996C87.2768 15.4496 87.3262 15.9584 87.3262 16.5274C87.3262 17.3779 87.1433 18.1913 86.7804 18.9707C86.416 19.75 85.8891 20.4985 85.201 21.216C84.5115 21.9304 83.6231 22.6603 82.5358 23.4056C82.9684 23.4845 83.3139 23.5232 83.5693 23.5232C84.0644 23.5232 84.5986 23.3917 85.172 23.1273C85.7482 22.8644 86.3347 22.5087 86.9313 22.0634C87.5309 21.618 88.2291 21.0413 89.0275 20.3315V21.6304C87.4786 23.2386 86.0923 24.4603 84.87 25.2922C83.6506 26.1257 82.5997 26.5417 81.7171 26.5417C80.579 26.5417 79.5251 26.0252 78.5583 24.9891C77.9893 24.3706 77.6351 23.7799 77.4957 23.2139C77.3593 22.6448 77.2925 21.8778 77.2925 20.9129ZM84.0571 17.9563L83.7319 15.1357C82.98 16.0357 81.3774 17.7676 78.9241 20.3315C79.647 20.5016 80.1435 20.7273 80.4106 21.0119C80.6777 21.2933 81.0522 21.8392 81.5371 22.651C82.3572 22.2923 82.9887 21.8021 83.43 21.1789C83.8713 20.5526 84.0919 19.6975 84.0919 18.6119C84.0919 18.4851 84.0876 18.3691 84.0803 18.2655C84.076 18.1635 84.0687 18.0599 84.0571 17.9563Z" fill="black"/>
<path d="M91.8067 21.0676V21.55C91.8067 22.3139 91.9809 22.9077 92.3293 23.3314C92.6806 23.7567 93.1422 23.9685 93.7113 23.9685C94.3035 23.9685 94.9161 23.8201 95.5519 23.5232C96.1863 23.2263 96.8178 22.8351 97.4449 22.3479C98.0749 21.8577 98.8457 21.2005 99.7559 20.3748V21.55C98.3884 23.3036 97.1052 24.6474 95.9061 25.5829C94.71 26.5138 93.4935 26.9808 92.2596 26.9808C91.1825 26.9808 90.329 26.537 89.699 25.651C89.0719 24.7603 88.7583 23.5417 88.7583 21.9954C88.7583 20.6439 89.0544 19.416 89.6467 18.315C90.239 17.214 91.2058 16.0512 92.55 14.8264C93.4703 13.9899 94.3848 13.3589 95.2907 12.9337C96.1965 12.5053 97.0065 12.2904 97.7236 12.2904C98.2926 12.2904 98.7426 12.4311 99.0765 12.711C99.4089 12.9878 99.5759 13.4022 99.5759 13.9543C99.5759 14.7677 99.2914 15.578 98.7223 16.3852C98.1533 17.1893 97.2837 17.9872 96.1152 18.7789C94.9495 19.5707 93.5139 20.3346 91.8067 21.0676ZM91.9867 19.8119C93.0784 19.3635 94.0103 18.8037 94.7855 18.1357C95.5592 17.4645 96.1297 16.8228 96.4984 16.212C96.8657 15.5981 97.05 15.1481 97.05 14.8636C97.05 14.5667 96.9237 14.4182 96.6726 14.4182C96.452 14.4182 96.0949 14.5667 95.6042 14.8636C95.1165 15.1605 94.62 15.5486 94.1177 16.0264C93.6184 16.5012 93.1684 17.0625 92.7706 17.7089C92.3714 18.3521 92.1101 19.0542 91.9867 19.8119Z" fill="black"/>
<path d="M122.113 20.4119V21.6676C120.854 22.518 119.861 22.9418 119.134 22.9418C118.735 22.9418 118.312 22.8722 117.868 22.7314C116.777 24.2005 115.839 25.2768 115.058 25.9603C114.28 26.6407 113.497 26.9809 112.712 26.9809C111.806 26.9809 111.107 26.4736 110.616 25.4592C110.128 24.4417 109.884 23.1768 109.884 21.6676C109.884 19.6186 110.465 17.3857 111.626 14.9687C112.788 12.5533 114.187 10.291 115.824 8.18327C117.462 6.07712 119.048 4.33437 120.586 2.95657C122.122 1.5803 123.164 0.890625 123.71 0.890625C124.228 0.890625 124.488 1.27103 124.488 2.02875C124.488 5.406 120.423 11.2946 112.294 19.6944C112.271 19.9263 112.259 20.3841 112.259 21.0676C112.259 22.8459 112.706 23.7335 113.6 23.7335C113.952 23.7335 114.306 23.5835 114.663 23.282C115.019 22.9773 115.566 22.4005 116.306 21.55C116.016 20.8542 115.871 20.3377 115.871 20.0037C115.871 19.2954 116.141 18.5284 116.684 17.7027C117.23 16.8785 117.848 16.1671 118.542 15.5687C119.239 14.9718 119.745 14.6718 120.063 14.6718C120.558 14.6718 120.806 15.0522 120.806 15.8099C120.806 16.3914 120.663 17.0888 120.377 17.9006C120.094 18.7094 119.68 19.6372 119.134 20.6841C119.339 20.8619 119.501 20.9933 119.622 21.0799C119.745 21.1634 119.927 21.2036 120.168 21.2036C120.725 21.2036 121.373 20.9408 122.113 20.4119ZM112.892 17.5109C113.522 16.9295 114.155 16.2429 114.791 15.4512C115.425 14.6594 116.354 13.4455 117.578 11.8079C118.751 10.2368 119.671 8.92862 120.342 7.88018C121.015 6.82866 121.521 5.95496 121.857 5.25755C122.197 4.56169 122.368 4.08541 122.368 3.82871C122.368 3.63542 122.319 3.538 122.223 3.538C121.956 3.538 121.4 4.00655 120.557 4.94209C119.716 5.87455 118.758 7.15339 117.682 8.77707C116.196 11.0162 115.119 12.7033 114.454 13.8368C113.788 14.9718 113.267 16.1965 112.892 17.5109Z" fill="black"/>
<path d="M129.486 11.7337C129.184 11.7337 128.896 11.6131 128.626 11.3688C128.355 11.1214 128.22 10.8106 128.22 10.4348C128.22 9.87037 128.472 9.23945 128.981 8.54205C129.487 7.84618 130.014 7.4967 130.56 7.4967C130.92 7.4967 131.219 7.61732 131.46 7.85546C131.704 8.09515 131.826 8.43999 131.826 8.88843C131.826 9.44512 131.577 10.0606 131.082 10.7317C130.586 11.3997 130.055 11.7337 129.486 11.7337ZM130.722 20.3748V21.7851C129.55 23.3933 128.454 24.6088 127.436 25.4283C126.421 26.2448 125.556 26.653 124.84 26.653C123.849 26.653 123.112 26.101 122.628 24.9953C122.143 23.8866 121.902 22.6743 121.902 21.3583C121.902 20.8557 121.95 20.3748 122.048 19.9171C122.143 19.4594 122.258 19.0821 122.39 18.7852C122.525 18.4882 122.775 18.0243 123.139 17.3934C124.854 14.5481 126.426 13.1255 127.854 13.1255C128.593 13.1255 128.963 13.4286 128.963 14.0347C128.963 14.4476 128.722 15.0924 128.243 15.9708C127.767 16.846 127.34 17.4676 126.966 17.8388C125.912 18.9243 125.225 19.6789 124.904 20.1027C124.582 20.5279 124.422 21.0104 124.422 21.55C124.422 22.017 124.585 22.4036 124.91 22.7129C125.238 23.0222 125.665 23.1768 126.188 23.1768C126.752 23.1768 127.378 22.9541 128.063 22.5088C128.748 22.0634 129.634 21.3521 130.722 20.3748Z" fill="black"/>
<path d="M133.422 21.0676V21.55C133.422 22.3139 133.596 22.9077 133.945 23.3314C134.296 23.7567 134.757 23.9685 135.327 23.9685C135.919 23.9685 136.531 23.8201 137.167 23.5232C137.802 23.2263 138.433 22.8351 139.06 22.3479C139.69 21.8577 140.461 21.2005 141.371 20.3748V21.55C140.004 23.3036 138.72 24.6474 137.521 25.5829C136.325 26.5138 135.109 26.9808 133.875 26.9808C132.798 26.9808 131.944 26.537 131.314 25.651C130.687 24.7603 130.374 23.5417 130.374 21.9954C130.374 20.6439 130.67 19.416 131.262 18.315C131.854 17.214 132.821 16.0512 134.165 14.8264C135.086 13.9899 136 13.3589 136.906 12.9337C137.812 12.5053 138.622 12.2904 139.339 12.2904C139.908 12.2904 140.358 12.4311 140.692 12.711C141.024 12.9878 141.191 13.4022 141.191 13.9543C141.191 14.7677 140.907 15.578 140.338 16.3852C139.769 17.1893 138.899 17.9872 137.73 18.7789C136.565 19.5707 135.129 20.3346 133.422 21.0676ZM133.602 19.8119C134.694 19.3635 135.626 18.8037 136.401 18.1357C137.174 17.4645 137.745 16.8228 138.114 16.212C138.481 15.5981 138.665 15.1481 138.665 14.8636C138.665 14.5667 138.539 14.4182 138.288 14.4182C138.067 14.4182 137.71 14.5667 137.219 14.8636C136.732 15.1605 136.235 15.5486 135.733 16.0264C135.234 16.5012 134.784 17.0625 134.386 17.7089C133.987 18.3521 133.725 19.0542 133.602 19.8119Z" fill="black"/>
<path d="M153.549 16.8738C151.419 19.3975 150.355 21.1573 150.355 22.15C150.355 22.7036 150.567 22.9789 150.994 22.9789C151.342 22.9789 151.797 22.784 152.358 22.3913C152.923 22 153.804 21.3011 155 20.2944V21.6305C153.285 23.4335 151.966 24.734 151.046 25.5335C150.129 26.3345 149.38 26.7334 148.799 26.7334C147.803 26.7334 147.307 26.0376 147.307 24.6428C147.307 24.2314 147.366 23.8247 147.487 23.4242C147.61 23.0253 147.777 22.6108 147.986 22.181C148.198 21.748 148.522 21.1294 148.956 20.3253C149.393 19.5181 149.896 18.6058 150.465 17.5914C149.776 17.9625 148.911 18.7032 147.87 19.8119C147.192 20.5093 146.617 21.1712 146.145 21.7975C145.672 22.4206 145.167 23.115 144.63 23.882C144.091 24.649 143.698 25.1654 143.451 25.4283C143.203 25.6927 142.953 25.8242 142.702 25.8242C142.315 25.8242 141.956 25.3943 141.628 24.5314C141.303 23.6655 141.14 22.6603 141.14 21.5129C141.14 20.8047 141.216 20.2495 141.367 19.849C141.518 19.4501 141.817 18.8826 142.267 18.148C143.098 16.7842 143.817 15.7837 144.421 15.1481C145.028 14.5095 145.608 14.1894 146.163 14.1894C146.549 14.1894 146.861 14.2605 147.098 14.3997C147.333 14.5404 147.452 14.7584 147.452 15.0553C147.452 15.1837 147.414 15.3197 147.342 15.4636C147.272 15.6043 147.191 15.7326 147.098 15.8471C147.008 15.963 146.819 16.1903 146.529 16.5275C144.615 18.7836 143.66 20.2449 143.66 20.9129C143.66 21.2887 143.776 21.4758 144.009 21.4758C144.151 21.4758 144.432 21.2284 144.851 20.7336C145.269 20.2356 145.806 19.5831 146.465 18.779C147.122 17.9718 147.902 17.1305 148.805 16.2553C149.706 15.377 150.733 14.5342 151.882 13.7254C152.521 13.2476 153.052 13.0079 153.479 13.0079C153.672 13.0079 153.862 13.2925 154.048 13.8615C154.237 14.4275 154.333 14.9996 154.333 15.5811C154.333 15.8625 154.071 16.2924 153.549 16.8738Z" fill="black"/>
</svg>
